# xmcd
#
# Track frame offsets: 
#        150
#        26514
#        44219
#        70240
#        86566
#        113168
#        131588
#        150556
#        165213
#        179382
#        196937
#        212069
#        228193
#
# Disc length: 3262 seconds
#
# Revision: 0
# Processed by: cddbd v1.5.2PL0 Copyright (c) Steve Scherf et al.
# Submitted via: ExactAudioCopy v1.0b3
#
DISCID=a80cbc0d
DTITLE=Johnie B. Sanders - I-94
DYEAR=2008
DGENRE=Blues
TTITLE0=My Girl Is Gone
TTITLE1=Red
TTITLE2=Mustang Sally
TTITLE3=Big Boss Man
TTITLE4=Hoochie Coochie Man
TTITLE5=I Got the Blues
TTITLE6=She's Fine
TTITLE7=Anger Management
TTITLE8=I-94
TTITLE9=Broke Man
TTITLE10=Money
TTITLE11=Cold Women
TTITLE12=Killing Floor
EXTD=
EXTT0=
EXTT1=
EXTT2=
EXTT3=
EXTT4=
EXTT5=
EXTT6=
EXTT7=
EXTT8=
EXTT9=
EXTT10=
EXTT11=
EXTT12=
PLAYORDER=
